<?xml version="1.0" standalone="no"?>
<!DOCTYPE svg PUBLIC "-//W3C//DTD SVG 20010904//EN"
 "http://www.w3.org/TR/2001/REC-SVG-20010904/DTD/svg10.dtd">
<svg version="1.0" xmlns="http://www.w3.org/2000/svg"
 width="339.000000pt" height="339.000000pt" viewBox="0 0 339.000000 339.000000"
 preserveAspectRatio="xMidYMid meet">
<metadata>
Created by potrace 1.14, written by Peter Selinger 2001-2017
</metadata>
<g transform="translate(0.000000,339.000000) scale(0.100000,-0.100000)"
fill="#000000" stroke="none">
<path d="M55 2929 c-54 -30 -69 -93 -41 -160 9 -21 218 -236 535 -554 287
-286 521 -522 521 -525 0 -2 -234 -239 -520 -525 -357 -358 -524 -532 -535
-557 -20 -50 -19 -80 6 -112 45 -57 39 -56 536 -56 330 1 465 5 485 13 14 7
164 148 333 315 169 166 311 302 315 302 8 0 87 -75 505 -483 l150 -147 476 3
476 2 36 28 c44 33 54 65 37 120 -10 35 -68 98 -364 395 -366 368 -445 437
-561 496 -182 91 -396 95 -596 10 -141 -59 -172 -85 -544 -456 l-361 -358
-263 2 -264 3 459 463 c252 255 468 478 478 496 15 24 17 41 12 71 -7 35 -38
70 -256 290 -137 138 -348 351 -470 475 l-221 225 263 3 263 3 335 -339 c184
-186 364 -359 400 -384 159 -113 299 -158 468 -153 112 3 221 33 336 92 84 43
107 63 289 242 109 108 281 277 381 376 183 180 218 220 229 263 8 35 -11 89
-40 112 -25 20 -37 20 -521 20 l-496 0 -316 -315 c-173 -173 -318 -315 -321
-315 -3 0 -146 141 -317 313 l-313 312 -492 2 c-347 2 -498 -1 -512 -8z m2905
-223 c0 -3 -117 -124 -261 -269 -221 -225 -270 -270 -328 -301 -123 -64 -231
-80 -344 -51 -49 13 -131 47 -147 62 -2 2 122 130 275 283 l280 280 262 0
c145 0 263 -2 263 -4z m-721 -1401 c134 -32 173 -62 466 -355 l270 -270 -270
0 -271 0 -274 274 c-151 151 -276 279 -278 284 -4 12 109 60 168 71 69 13 119
12 189 -4z"/>
</g>
</svg>
